<svg version="1.1" id="Layer_1" xmlns="http://www.w3.org/2000/svg" xmlns:xlink="http://www.w3.org/1999/xlink" x="0px" y="0px"
	 width="100%" viewBox="0 0 1024 880" enable-background="new 0 0 1024 880" xml:space="preserve">
<path fill="#000000" opacity="1.000000" stroke="none" 
	d="
M173.699432,328.787598 
	C212.313950,226.466827 281.809845,155.124832 383.944061,116.333939 
	C415.103424,104.499489 447.556061,98.435928 480.891357,96.522797 
	C544.126709,92.893684 603.994934,105.347153 659.781006,135.015686 
	C740.623657,178.009979 796.333435,243.283524 827.787415,329.257935 
	C834.434082,347.425537 839.221252,366.090271 842.840210,385.091095 
	C843.707275,389.643372 842.283752,390.568604 838.119751,390.512970 
	C826.750793,390.361053 826.765564,390.491211 824.483276,379.862610 
	C810.252747,313.591064 779.579956,256.121094 731.361389,208.440613 
	C682.478943,160.103592 624.110291,128.806290 556.199585,117.790291 
	C458.135956,101.883087 369.558411,125.081184 292.573090,188.314621 
	C230.416473,239.368210 192.121216,305.209198 176.311310,384.063171 
	C175.369904,388.758606 173.696732,391.246063 168.556839,390.470520 
	C165.301865,389.979370 161.915146,390.992615 157.981201,389.695984 
	C160.958130,368.942719 166.586945,348.883484 173.699432,328.787598 
z"/>
<path fill="#000000" opacity="1.000000" stroke="none" 
	d="
M194.428223,618.492920 
	C177.297424,586.325439 165.731735,552.589050 158.874451,517.209656 
	C157.430130,509.757751 157.506851,509.690674 165.132233,509.746429 
	C176.495850,509.829498 174.404831,508.519440 176.542862,518.714600 
	C190.860641,586.989258 222.598236,645.911011 272.622986,694.498047 
	C320.364594,740.867493 377.114441,771.274597 442.835388,782.240662 
	C546.860718,799.598022 639.509155,773.421326 718.728577,703.538025 
	C775.857910,653.141541 810.752930,589.475952 825.508728,514.797546 
	C826.306885,510.757996 828.049988,509.646820 831.834534,509.680573 
	C845.728516,509.804626 844.114685,508.805908 841.590210,521.317383 
	C828.991272,583.756470 801.844727,639.130310 759.650024,686.818909 
	C709.054688,744.002014 646.462524,781.629089 571.574768,797.025391 
	C480.158295,815.819885 394.345215,800.201111 315.436829,750.151184 
	C263.579437,717.259094 223.561951,673.010986 194.428223,618.492920 
z"/>
<path fill="#000000" opacity="1.000000" stroke="none" 
	d="
M133.641418,416.279846 
	C140.937515,423.647980 143.147354,439.127472 138.202316,448.637360 
	C136.880646,451.179108 137.102997,452.957947 138.223587,455.480164 
	C141.822189,463.579773 141.584702,472.201050 138.882965,480.302155 
	C136.287598,488.084198 129.833069,492.204376 121.555725,492.260742 
	C97.587830,492.423981 73.617729,492.252380 49.649574,492.394958 
	C45.594097,492.419098 44.582302,490.799927 44.600700,487.063629 
	C44.715443,463.761017 44.730812,440.457153 44.597832,417.154755 
	C44.574726,413.106445 45.830566,411.579254 50.017040,411.603485 
	C73.652260,411.740326 97.288834,411.688110 120.924744,411.624359 
	C125.654961,411.611572 129.703888,413.193268 133.641418,416.279846 
M116.237541,478.656250 
	C125.215439,478.593201 126.719971,477.097168 126.687531,468.265228 
	C126.658661,460.405670 125.264702,459.195648 116.152756,459.188660 
	C101.359695,459.177246 86.566612,459.168549 71.773552,459.177582 
	C58.217487,459.185852 58.366009,459.197754 58.279686,472.976715 
	C58.252777,477.271606 59.500832,478.811462 63.936993,478.756256 
	C81.054459,478.543243 98.176056,478.662781 116.237541,478.656250 
M104.498886,444.924774 
	C109.650818,444.906738 114.803993,444.952118 119.954300,444.851349 
	C124.365944,444.765076 126.701103,442.494995 126.665962,437.981689 
	C126.654312,436.485992 126.693932,434.989319 126.654633,433.494568 
	C126.503937,427.762482 124.472481,425.492310 118.871468,425.465240 
	C100.257812,425.375183 81.643242,425.470184 63.029648,425.374329 
	C59.699337,425.357208 58.080860,426.344391 58.333595,429.939850 
	C58.566109,433.247681 58.597553,436.600769 58.338020,439.904083 
	C58.018528,443.970520 59.853161,445.020203 63.612637,444.977783 
	C76.906708,444.827850 90.203537,444.922455 104.498886,444.924774 
z"/>
<path fill="#000000" opacity="1.000000" stroke="none" 
	d="
M902.156433,425.427185 
	C895.354492,425.493561 889.055969,425.994934 882.705200,425.529999 
	C875.982239,425.037811 874.050476,427.171722 874.000183,433.873199 
	C873.992737,434.872925 873.984863,435.873138 874.005920,436.872498 
	C874.142334,443.349548 875.568115,444.874542 881.998901,444.898193 
	C899.661743,444.963165 917.325134,444.901611 934.987915,444.974182 
	C943.108154,445.007538 949.811462,448.114685 953.386658,455.630737 
	C957.280945,463.817780 957.268250,472.605530 953.920288,480.878815 
	C950.925720,488.278717 944.644775,492.190674 936.580383,492.252991 
	C917.252197,492.402313 897.921265,492.401215 878.592957,492.261597 
	C869.710693,492.197449 862.394531,485.917603 860.250183,477.280640 
	C859.431824,473.984314 860.119873,471.998810 863.871704,472.030975 
	C868.212585,472.068207 872.906921,470.789154 875.390137,476.368225 
	C876.287476,478.384277 878.866699,478.671722 881.144470,478.669250 
	C898.974121,478.649841 916.804016,478.714020 934.633362,478.637878 
	C939.610107,478.616638 941.565125,476.552490 941.797852,471.672607 
	C941.869202,470.176300 941.834900,468.673492 941.810120,467.174286 
	C941.703491,460.716095 940.247437,459.173035 933.837769,459.159302 
	C916.508118,459.122162 899.178223,459.182404 881.848450,459.164459 
	C867.807373,459.149933 859.801819,451.179382 859.759033,437.204193 
	C859.749878,434.207336 859.573853,431.169739 859.980225,428.220551 
	C861.231506,419.139740 869.272705,411.813171 878.581726,411.721497 
	C898.075562,411.529480 917.573730,411.552002 937.067932,411.730713 
	C945.909729,411.811737 953.734680,418.632233 955.337402,426.794006 
	C955.983337,430.083405 955.306274,432.044647 951.529053,431.919617 
	C947.378052,431.782166 942.924927,433.181580 940.350098,427.862152 
	C939.124451,425.330200 935.863770,425.398712 933.130920,425.406525 
	C922.966309,425.435455 912.801514,425.423065 902.156433,425.427185 
z"/>
<path fill="#000000" opacity="1.000000" stroke="none" 
	d="
M804.875000,452.099731 
	C812.359558,458.158295 819.570557,463.990692 827.786194,470.635681 
	C827.786194,467.054932 827.785217,464.640991 827.786316,462.227051 
	C827.793274,447.404816 827.968811,432.579651 827.713501,417.761932 
	C827.628235,412.814392 829.498901,411.446930 834.143616,411.598328 
	C841.599487,411.841400 841.972290,411.799622 841.988708,417.859955 
	C842.049683,440.342896 842.029114,462.826050 842.014099,485.309143 
	C842.009460,492.194824 837.501953,494.761139 831.331970,491.288239 
	C829.321838,490.156830 827.564148,488.555267 825.758240,487.085999 
	C805.091614,470.271545 784.444214,453.433380 763.763672,436.636017 
	C762.661011,435.740448 761.753113,434.374908 759.349854,434.456665 
	C759.349854,437.372009 759.349670,440.304993 759.349854,443.237976 
	C759.351013,457.893555 759.209412,472.551422 759.439758,487.203400 
	C759.509827,491.655884 757.565857,492.774323 753.741272,492.324158 
	C750.326965,491.922272 745.643616,494.033203 745.678589,487.430573 
	C745.803772,463.782318 745.712524,440.132904 745.738220,416.483978 
	C745.739990,414.889069 745.279846,412.714813 747.313110,412.173859 
	C750.534180,411.316925 753.962463,410.908142 756.867065,413.185455 
	C762.107971,417.294434 767.259583,421.517670 772.430298,425.715637 
	C783.160339,434.427155 793.878418,443.153442 804.875000,452.099731 
z"/>
<path fill="#000000" opacity="1.000000" stroke="none" 
	d="
M635.125854,467.151489 
	C647.001709,449.638428 658.640564,432.399658 670.352600,415.210724 
	C673.804321,410.144867 678.973999,410.033936 682.435852,415.118896 
	C699.010620,439.464752 715.473755,463.886597 731.953613,488.296906 
	C732.576477,489.219482 733.459595,490.149170 732.964355,491.461243 
	C723.047974,494.387817 717.606689,493.045319 712.957214,484.745880 
	C708.800171,477.325470 703.647278,474.543762 695.000061,475.033722 
	C680.401245,475.860901 665.720581,475.354614 651.076660,475.193268 
	C647.667175,475.155701 645.363098,476.182159 643.769226,479.172302 
	C642.913147,480.778320 641.740479,482.215027 640.716980,483.732391 
	C634.298950,493.247162 631.985596,494.139740 618.817810,491.437286 
	C624.347046,483.197052 629.631897,475.320923 635.125854,467.151489 
M677.860901,433.125305 
	C676.366821,431.052307 675.416809,432.366547 674.513306,433.687439 
	C672.638489,436.428406 670.772705,439.175842 668.936035,441.942474 
	C664.940186,447.961792 660.965027,453.994812 656.644043,460.532745 
	C670.055908,460.532745 682.499451,460.532745 696.240173,460.532745 
	C689.796875,450.915283 684.012085,442.280670 677.860901,433.125305 
z"/>
<path fill="#000000" opacity="1.000000" stroke="none" 
	d="
M593.058105,464.259155 
	C593.256531,460.406830 591.728271,459.107300 588.292603,459.126007 
	C569.475891,459.228485 550.657898,459.236542 531.841431,459.117554 
	C528.199585,459.094543 527.294678,460.683777 527.372131,463.961517 
	C527.552979,471.617279 527.259705,479.290863 527.645691,486.932617 
	C527.860352,491.182678 526.417908,492.799652 522.308044,492.362274 
	C521.154846,492.239532 519.967834,492.227783 518.814941,492.346344 
	C514.819885,492.757141 513.649841,490.846436 513.666382,487.059174 
	C513.768433,463.746216 513.783020,440.432068 513.632629,417.119568 
	C513.606262,413.026611 514.922424,411.540131 519.071411,411.570740 
	C527.393555,411.632172 527.398193,411.442932 527.406372,419.595917 
	C527.413208,426.423370 527.469910,433.251556 527.388184,440.078003 
	C527.348450,443.393311 528.668335,444.951324 532.111694,444.940033 
	C550.928650,444.878357 569.746094,444.877655 588.563049,444.938049 
	C591.743286,444.948273 593.052612,443.665192 593.025269,440.476227 
	C592.958191,432.650696 592.969849,424.821564 593.139343,416.997955 
	C593.253479,411.731415 593.749451,411.698517 601.786560,411.557556 
	C605.828796,411.486694 607.394775,412.741486 607.367798,416.954407 
	C607.218567,440.266876 607.190979,463.581543 607.371460,486.893524 
	C607.407043,491.487610 605.572327,492.511719 601.425598,492.414795 
	C593.081543,492.219818 593.082214,492.399628 593.084351,484.208649 
	C593.086060,477.714203 593.073914,471.219757 593.058105,464.259155 
z"/>
<path fill="#000000" opacity="1.000000" stroke="none" 
	d="
M238.029938,425.025696 
	C238.037933,422.198669 238.166260,419.859100 238.027435,417.535431 
	C237.758408,413.032745 239.651321,411.429810 244.229584,411.578827 
	C252.195465,411.838013 252.211243,411.585693 252.211716,419.619690 
	C252.212631,434.780518 252.227158,449.941406 252.192825,465.102173 
	C252.156052,481.350464 241.163940,492.287109 224.840164,492.319336 
	C210.679001,492.347260 196.517532,492.365631 182.356537,492.307037 
	C167.463959,492.245422 156.294403,481.636200 156.003174,466.682709 
	C155.678787,450.028656 155.964020,433.363464 155.865173,416.703827 
	C155.844254,413.180176 156.986740,411.302124 160.757294,411.620758 
	C162.080521,411.732605 163.434479,411.755707 164.751785,411.612000 
	C169.007507,411.147919 170.228561,413.239227 170.200455,417.196503 
	C170.089264,432.856201 170.149933,448.517395 170.195801,464.177887 
	C170.225662,474.377533 174.599579,478.659180 184.882370,478.662354 
	C197.877365,478.666412 210.872635,478.706512 223.867279,478.636719 
	C233.317505,478.585999 238.011459,473.898987 238.046097,464.505371 
	C238.094009,451.510559 238.039948,438.515381 238.029938,425.025696 
z"/>
<path fill="#000000" opacity="1.000000" stroke="none" 
	d="
M269.897522,480.969299 
	C269.893036,459.655060 269.862549,438.836395 269.900116,418.017853 
	C269.911499,411.696533 270.073364,411.633301 277.491119,411.654724 
	C283.830536,411.673035 284.113586,411.877899 284.123871,417.982880 
	C284.154480,436.136658 284.264069,454.292267 284.028137,472.443115 
	C283.966919,477.154358 285.277679,478.846802 290.177399,478.762665 
	C305.828400,478.493835 321.486877,478.662109 337.142487,478.659973 
	C344.274536,478.658997 344.274536,478.657288 344.266602,485.871857 
	C344.259521,492.330383 344.259521,492.331757 336.927795,492.330994 
	C317.275024,492.328918 297.622223,492.326599 277.969452,492.322174 
	C269.904572,492.320343 269.904297,492.317688 269.894714,484.462830 
	C269.893494,483.463531 269.896576,482.464233 269.897522,480.969299 
z"/>
<path fill="#000000" opacity="1.000000" stroke="none" 
	d="
M370.497498,412.137390 
	C372.547424,414.376251 372.072601,416.796112 372.076538,419.083466 
	C372.107056,436.912476 372.241302,454.743866 371.978363,472.569153 
	C371.906128,477.467987 373.569977,478.817108 378.281464,478.746979 
	C394.274139,478.508911 410.272522,478.637573 426.268677,478.660645 
	C432.144562,478.669128 431.992828,478.821838 432.284180,486.076874 
	C432.472137,490.756714 431.072083,492.508972 426.124756,492.450470 
	C405.465820,492.206116 384.800537,492.181183 364.142120,492.439667 
	C358.912659,492.505127 357.666260,490.576141 357.707489,485.736847 
	C357.899292,463.243866 357.783081,440.748322 357.799408,418.253693 
	C357.804138,411.728058 357.863586,411.683899 364.613525,411.680328 
	C366.439819,411.679382 368.266144,411.836029 370.497498,412.137390 
z"/>
<path fill="#000000" opacity="1.000000" stroke="none" 
	d="
M527.674805,549.974609 
	C527.694641,546.995972 527.710999,544.502319 527.735352,542.008789 
	C527.757874,539.701172 529.002014,538.763000 531.226501,538.807861 
	C533.330566,538.850342 534.221252,539.991516 534.225525,541.955811 
	C534.244995,550.933411 534.383240,559.914001 534.184265,568.887085 
	C534.102478,572.574524 531.312927,573.348999 527.792480,570.581543 
	C520.605347,564.931641 513.577209,559.079651 506.467529,553.330750 
	C505.086578,552.214111 503.632721,551.187744 501.314026,549.444031 
	C501.314026,556.165649 501.316162,561.903870 501.312958,567.642090 
	C501.311707,569.871826 501.392822,572.115173 498.166077,572.163635 
	C495.073944,572.210144 494.735687,570.205933 494.737732,567.844971 
	C494.744720,559.698242 494.721619,551.551453 494.751892,543.404846 
	C494.757904,541.783447 494.452789,539.874817 496.414215,539.089539 
	C498.344971,538.316467 499.935303,539.298645 501.414154,540.505188 
	C508.755829,546.495056 516.105042,552.475769 523.470459,558.436340 
	C524.488647,559.260376 525.612061,559.954468 527.674805,561.402222 
	C527.674805,557.216492 527.674805,553.838135 527.674805,549.974609 
z"/>
<path fill="#000000" opacity="1.000000" stroke="none" 
	d="
M396.476746,555.540283 
	C394.007782,553.551636 391.814972,551.789978 388.363495,549.017151 
	C388.363495,554.725342 388.367371,559.224915 388.361511,563.724548 
	C388.359344,565.389832 388.332367,567.055115 388.320435,568.720398 
	C388.307190,570.565735 387.820251,572.006531 385.614105,572.148865 
	C383.360260,572.294312 382.020813,571.257568 382.009186,569.033020 
	C381.962219,560.041809 381.818146,551.043030 382.134613,542.062012 
	C382.265930,538.334167 385.026123,537.667786 388.667969,540.514343 
	C395.357697,545.743225 401.850861,551.222961 408.465942,556.548462 
	C410.116486,557.877258 411.559570,559.591370 414.290894,560.076782 
	C415.305939,556.671082 414.642487,553.198853 414.792511,549.810425 
	C414.910309,547.150208 414.818268,544.480591 414.935822,541.820374 
	C415.022827,539.852051 416.122467,538.838379 418.160797,538.822571 
	C420.211548,538.806702 421.282867,539.736572 421.284576,541.796387 
	C421.292084,550.955933 421.436737,560.119263 421.207031,569.273071 
	C421.122040,572.659363 418.464844,573.208374 415.024353,570.512634 
	C408.864410,565.686218 402.836121,560.691589 396.476746,555.540283 
z"/>
<path fill="#000000" opacity="1.000000" stroke="none" 
	d="
M573.702759,565.677429 
	C577.445923,565.841187 580.415649,565.482239 582.411560,562.258728 
	C583.827087,559.972656 586.332886,560.123474 588.130981,561.378296 
	C590.086304,562.742798 588.623718,564.767334 587.822571,566.309998 
	C585.893311,570.024841 582.590149,571.985718 578.531616,572.143433 
	C572.542175,572.376160 566.525146,572.446960 560.541809,572.147644 
	C553.967041,571.818726 549.918213,567.361694 549.720215,560.744141 
	C549.610657,557.081421 549.586853,553.407898 549.731567,549.747498 
	C549.973389,543.630127 553.934570,539.173035 559.955811,538.857239 
	C566.269043,538.526306 572.627441,538.561218 578.940796,538.903625 
	C583.164856,539.132812 586.570557,541.316101 588.158691,545.510193 
	C588.707520,546.959656 589.844849,548.825623 587.749390,549.915100 
	C586.261841,550.688477 583.970337,550.925476 583.122681,549.457397 
	C580.237793,544.460938 575.590454,545.407654 571.176025,545.335205 
	C570.509583,545.324280 569.842834,545.330139 569.176270,545.329407 
	C556.354675,545.315430 553.717712,548.617004 556.416321,561.262817 
	C557.094849,564.442322 559.329590,565.557739 562.249207,565.629456 
	C565.913269,565.719543 569.580872,565.668640 573.702759,565.677429 
z"/>
<path fill="#000000" opacity="1.000000" stroke="none" 
	d="
M480.596497,571.228027 
	C476.578613,573.244202 473.672821,572.091309 471.732452,568.449219 
	C470.378510,565.907715 468.281647,565.169434 465.529877,565.273376 
	C461.711578,565.417603 457.872833,565.486450 454.062561,565.257996 
	C449.350983,564.975586 445.351105,565.370972 442.748962,570.277954 
	C441.162231,573.270203 438.034943,572.500732 435.430969,571.631592 
	C434.780243,570.021057 435.634399,569.092651 436.260406,568.161194 
	C442.102234,559.469788 447.919891,550.761353 453.856079,542.134521 
	C457.016998,537.540771 458.914581,537.531494 461.979126,542.135437 
	C468.316498,551.656067 475.462341,560.651917 480.596497,571.228027 
M452.992889,558.495056 
	C456.484650,558.492798 460.076630,559.482239 463.703583,557.604858 
	C462.152985,554.249939 460.554443,551.322205 457.675842,548.787537 
	C455.845367,552.199158 452.534454,554.270447 452.992889,558.495056 
z"/>
<path fill="#000000" opacity="1.000000" stroke="none" 
	d="
M661.216919,567.658142 
	C659.755676,565.308594 657.758728,565.272949 655.715454,565.284302 
	C651.720032,565.306458 647.714294,565.467773 643.731628,565.240906 
	C639.173340,564.981323 635.325378,565.434937 632.837219,570.127625 
	C631.219788,573.178223 628.166199,572.512817 625.490662,571.653076 
	C624.842468,569.862427 625.892944,568.846680 626.602356,567.786316 
	C632.248230,559.347229 637.888489,550.903809 643.617859,542.521423 
	C647.100952,537.425415 648.764160,537.472229 652.317383,542.676758 
	C657.760803,550.649963 663.159180,558.654175 668.524292,566.680359 
	C669.419861,568.020264 670.731689,569.217957 670.623840,571.391296 
	C666.375610,573.524780 663.572510,571.752686 661.216919,567.658142 
M652.293823,558.645813 
	C653.395020,558.487976 654.473938,558.042053 653.654846,556.785400 
	C651.896790,554.088135 650.521729,551.054810 647.767639,548.812439 
	C645.325439,551.851074 643.061768,554.562378 641.845520,558.172607 
	C645.316467,559.114441 648.456848,558.570129 652.293823,558.645813 
z"/>
<path fill="#000000" opacity="1.000000" stroke="none" 
	d="
M336.509277,552.147644 
	C339.383087,552.775085 339.437286,554.606567 339.155121,556.511597 
	C338.820435,558.771179 336.877228,558.776489 335.292053,558.808533 
	C329.136047,558.932800 322.965912,559.128357 316.822937,558.836426 
	C313.148010,558.661804 312.046326,560.062317 312.326202,563.427063 
	C312.477325,565.243774 312.320801,567.085999 312.307281,568.916687 
	C312.293060,570.848572 311.564606,572.084900 309.409943,572.150391 
	C307.380524,572.212036 306.102692,571.281128 306.090118,569.297852 
	C306.032013,560.148193 306.039001,550.997314 306.147125,541.848267 
	C306.173431,539.623047 307.735718,538.755798 309.881042,538.758423 
	C319.701569,538.770569 329.522064,538.759827 339.342590,538.740906 
	C341.760895,538.736206 343.116669,539.748169 343.033295,542.316467 
	C342.953766,544.766785 341.383972,545.317627 339.329102,545.317871 
	C332.005280,545.318726 324.681335,545.303894 317.357758,545.349609 
	C315.100342,545.363708 312.445160,544.813782 312.387665,548.504150 
	C312.326050,552.459351 315.127380,551.968201 317.591949,551.989380 
	C323.749725,552.042297 329.907898,552.052979 336.509277,552.147644 
z"/>
<path fill="#000000" opacity="1.000000" stroke="none" 
	d="
M983.213379,423.535461 
	C975.449951,426.598083 967.748596,425.594147 960.235413,424.745270 
	C955.541504,424.214874 953.470520,420.218933 953.671265,413.932190 
	C953.868652,407.748383 951.269226,399.739380 959.846680,397.384857 
	C966.666687,395.512695 974.049194,396.212524 981.145386,397.270325 
	C983.136414,397.567078 984.630554,399.143768 985.779663,400.861847 
	C989.054382,405.758087 987.741760,418.938416 983.213379,423.535461 
M981.660339,412.278015 
	C981.636475,410.449860 981.707764,408.614288 981.566406,406.795288 
	C981.355347,404.080414 979.817444,402.479126 977.068420,402.436615 
	C972.748779,402.369690 968.421936,402.362701 964.106750,402.539856 
	C960.705078,402.679565 959.314270,404.551056 959.240723,408.081207 
	C959.011719,419.079529 959.110962,419.321228 969.932251,419.639404 
	C971.758606,419.693085 973.589111,419.642365 975.416992,419.604004 
	C979.627319,419.515747 982.008362,417.640198 981.660339,412.278015 
z"/>
<path fill="#000000" opacity="1.000000" stroke="none" 
	d="
M443.190735,446.721252 
	C451.662292,446.720276 459.659119,446.882660 467.644318,446.648773 
	C471.832275,446.526123 472.582428,448.435699 472.577972,452.105194 
	C472.573517,455.769806 471.882965,457.581604 467.643005,457.419556 
	C459.496246,457.108185 451.328247,457.242554 443.171448,457.358643 
	C439.850464,457.405884 437.729858,456.746826 437.808533,452.759949 
	C437.877350,449.272491 437.970093,446.227997 443.190735,446.721252 
z"/>
<path fill="#000000" opacity="1.000000" stroke="none" 
	d="
M691.210876,541.354736 
	C691.291809,548.134583 691.478088,554.459351 691.276062,560.771729 
	C691.160583,564.379395 692.257080,565.932434 696.065308,565.744934 
	C701.042236,565.499817 706.041016,565.708618 711.030396,565.698486 
	C713.436035,565.693604 715.349976,566.132019 715.231567,569.215881 
	C715.119995,572.118591 713.101562,572.215210 711.040405,572.222473 
	C703.722839,572.248169 696.404907,572.197693 689.087524,572.241333 
	C686.267334,572.258179 684.731750,571.206360 684.753113,568.161865 
	C684.812317,559.680420 684.761658,551.198181 684.776611,542.716309 
	C684.779358,541.188354 684.886353,539.531616 686.691467,539.074097 
	C688.505981,538.614197 690.406799,538.486267 691.210876,541.354736 
z"/>
<path fill="#000000" opacity="1.000000" stroke="none" 
	d="
M358.783936,548.063721 
	C358.806885,545.745605 358.806396,543.917053 358.859650,542.090027 
	C358.924377,539.871704 360.039276,538.771362 362.318024,538.810974 
	C364.431305,538.847717 365.293640,539.962524 365.294342,541.944946 
	C365.297546,550.920044 365.293365,559.895142 365.304230,568.870239 
	C365.306946,571.127014 364.279388,572.239380 361.958130,572.143188 
	C359.566986,572.044128 358.851685,570.572449 358.842560,568.498901 
	C358.813293,561.850647 358.802307,555.202332 358.783936,548.063721 
z"/>
<path fill="#000000" opacity="1.000000" stroke="none" 
	d="
M604.805054,545.161133 
	C604.824402,543.853638 604.836243,543.022644 604.864502,542.192261 
	C604.938416,540.016968 605.926208,538.824829 608.243774,538.817505 
	C610.719543,538.809692 611.323242,540.256531 611.321167,542.358704 
	C611.312500,551.002136 611.317627,559.645569 611.335815,568.289001 
	C611.340515,570.535950 610.847351,572.242859 608.051697,572.143188 
	C605.312866,572.045471 604.838684,570.266907 604.834412,568.077942 
	C604.819885,560.597961 604.814148,553.117920 604.805054,545.161133 
z"/>
<path fill="#000000" opacity="1.000000" stroke="none" 
	d="
M978.095459,410.227173 
	C978.066223,412.330597 978.114075,413.995728 978.002747,415.650146 
	C977.919495,416.887207 977.360352,417.927551 975.964844,418.096893 
	C974.873108,418.229340 974.155151,417.744720 973.625427,416.693085 
	C971.727234,412.924500 969.414001,413.558533 967.415527,416.486908 
	C966.508240,417.816284 965.641479,418.390961 964.191345,418.001343 
	C962.743958,417.612488 962.805115,416.310211 962.721069,415.165283 
	C962.660400,414.337463 962.683594,413.503235 962.676392,412.671814 
	C962.598328,403.659546 965.029968,401.759857 973.991211,403.804108 
	C977.214050,404.539276 978.044617,406.889252 978.095459,410.227173 
z"/>
</svg>